<?xml version="1.0" standalone="no"?>
<!DOCTYPE svg PUBLIC "-//W3C//DTD SVG 20010904//EN"
 "http://www.w3.org/TR/2001/REC-SVG-20010904/DTD/svg10.dtd">
<svg version="1.0" xmlns="http://www.w3.org/2000/svg"
 width="250.000000pt" height="250.000000pt" viewBox="0 0 250.000000 250.000000"
 preserveAspectRatio="xMidYMid meet">
<metadata>
Created by potrace 1.16, written by Peter Selinger 2001-2019
</metadata>
<g transform="translate(0.000000,250.000000) scale(0.100000,-0.100000)"
fill="#000000" stroke="none">
<path d="M1095 2409 c-247 -33 -497 -159 -675 -339 -368 -372 -444 -940 -185
-1396 299 -530 965 -741 1511 -480 135 65 228 130 329 231 97 97 160 184 223
310 220 442 132 985 -218 1335 -168 167 -366 276 -595 325 -88 19 -298 27
-390 14z m505 -655 c179 -119 335 -226 348 -237 22 -20 22 -24 22 -266 0 -135
-4 -251 -8 -257 -15 -24 -679 -458 -705 -462 -23 -4 -84 33 -355 213 -180 120
-337 227 -350 238 -22 20 -22 24 -22 266 0 135 4 251 8 257 4 6 160 113 347
238 217 144 349 226 365 226 16 0 143 -79 350 -216z"/>
<path d="M945 1634 c-126 -85 -230 -158 -230 -163 0 -10 188 -141 202 -141 4
0 67 39 140 88 l133 87 0 143 c0 78 -3 142 -7 141 -5 0 -111 -70 -238 -155z"/>
<path d="M1310 1648 l0 -143 133 -87 c73 -49 136 -88 141 -88 10 0 206 133
206 140 0 6 -466 320 -475 320 -3 0 -5 -64 -5 -142z"/>
<path d="M1140 1324 c-52 -35 -96 -68 -98 -72 -3 -9 192 -142 208 -142 13 0
210 131 210 140 0 10 -198 140 -212 139 -7 0 -56 -29 -108 -65z"/>
<path d="M650 1250 l0 -102 28 18 c15 9 48 31 74 48 26 17 48 33 48 36 0 3
-22 19 -48 36 -26 17 -59 39 -74 48 l-28 18 0 -102z"/>
<path d="M1773 1302 c-40 -26 -73 -49 -73 -52 0 -3 33 -26 73 -52 l72 -48 3
50 c2 28 2 72 0 100 l-3 50 -72 -48z"/>
<path d="M808 1102 c-54 -37 -98 -70 -98 -73 0 -6 466 -319 475 -319 3 0 5 64
5 143 l0 142 -133 88 c-73 48 -137 87 -142 86 -6 0 -54 -30 -107 -67z"/>
<path d="M1443 1082 l-133 -87 0 -142 c0 -79 2 -143 5 -143 12 0 475 314 473
321 -4 10 -194 139 -205 139 -4 0 -68 -39 -140 -88z"/>
</g>
</svg>
