<?xml version="1.0" standalone="no"?>
<!DOCTYPE svg PUBLIC "-//W3C//DTD SVG 20010904//EN"
 "http://www.w3.org/TR/2001/REC-SVG-20010904/DTD/svg10.dtd">
<svg version="1.0" xmlns="http://www.w3.org/2000/svg"
 width="736.000000pt" height="698.000000pt" viewBox="0 0 736.000000 698.000000"
 preserveAspectRatio="xMidYMid meet">
<metadata>
Created by potrace 1.16, written by Peter Selinger 2001-2019
</metadata>
<g transform="translate(0.000000,698.000000) scale(0.100000,-0.100000)"
fill="#000000" stroke="none">
<path d="M3380 6630 c-646 -53 -1209 -384 -1565 -920 -428 -646 -447 -1508
-47 -2175 231 -385 604 -699 1021 -859 111 -43 159 -46 198 -12 l28 24 0 214
c0 184 -2 212 -15 209 -43 -11 -306 -12 -362 -1 -148 29 -237 96 -300 229 -47
97 -117 212 -157 255 -14 15 -52 46 -84 68 -108 74 -100 123 21 123 121 0 220
-72 344 -247 53 -76 119 -128 197 -158 78 -30 205 -29 297 2 l67 23 19 68 c21
79 39 117 80 169 l29 37 -48 6 c-306 44 -539 154 -674 319 -184 225 -259 658
-164 952 28 84 87 193 137 249 l30 35 -15 62 c-34 141 -29 284 15 419 l22 69
59 0 c112 0 254 -52 430 -159 l82 -49 51 13 c146 38 250 49 459 49 178 0 229
-3 335 -23 69 -13 136 -27 148 -32 20 -8 39 0 108 41 180 109 317 160 430 160
l61 0 22 -68 c43 -138 49 -280 15 -416 -13 -53 -13 -61 1 -80 148 -201 188
-318 188 -551 0 -159 -14 -264 -50 -380 -106 -339 -348 -528 -767 -600 -49 -8
-93 -15 -98 -15 -5 0 6 -22 26 -49 85 -115 96 -184 96 -604 1 -349 1 -351 47
-375 51 -27 146 0 343 97 460 229 813 615 1003 1097 138 351 174 780 96 1159
-65 313 -225 644 -431 890 -278 333 -649 568 -1064 675 -202 52 -469 76 -664
60z"/>
<path d="M915 2303 c-308 -38 -501 -195 -594 -482 -35 -109 -52 -220 -58 -386
-17 -490 126 -789 437 -913 87 -35 185 -52 330 -59 197 -8 323 16 493 94 l77
36 0 458 0 458 -52 6 c-29 4 -167 5 -306 3 -204 -2 -254 -6 -261 -17 -13 -21
-14 -277 -1 -301 10 -18 21 -20 130 -20 l120 0 0 -170 c0 -151 -2 -170 -17
-179 -32 -17 -185 -23 -252 -11 -158 28 -240 112 -293 297 -31 107 -33 399 -4
508 49 184 140 280 297 315 82 18 323 8 416 -18 53 -14 75 -17 82 -8 8 10 71
271 71 294 0 13 -86 50 -155 67 -118 28 -347 42 -460 28z"/>
<path d="M3286 2218 c-3 -13 -6 -402 -6 -865 0 -823 0 -843 19 -853 26 -13
316 -13 342 0 18 10 19 25 19 381 l0 369 253 -2 252 -3 3 -369 c2 -281 5 -372
15 -378 16 -10 328 -10 345 0 10 7 12 188 10 873 l-3 864 -182 3 -183 2 0
-325 0 -325 -255 0 -255 0 -2 323 -3 322 -181 3 c-181 2 -182 2 -188 -20z"/>
<path d="M5977 2233 c-4 -3 -7 -394 -7 -869 0 -777 2 -862 16 -868 9 -3 64 -6
124 -6 121 0 140 8 140 62 0 16 3 28 8 26 4 -1 45 -22 92 -46 148 -75 333 -91
477 -42 119 41 201 144 244 307 30 110 38 421 15 542 -30 160 -107 281 -213
335 -111 56 -287 61 -423 12 -41 -15 -83 -30 -92 -33 -17 -5 -18 13 -18 291
l0 296 -178 0 c-98 0 -182 -3 -185 -7z m664 -846 c19 -12 45 -44 59 -72 24
-48 25 -58 25 -230 0 -164 -2 -184 -22 -227 -34 -74 -68 -90 -178 -85 -64 2
-104 9 -138 25 l-47 21 2 273 3 273 55 22 c78 32 194 32 241 0z"/>
<path d="M1889 2180 c-146 -77 -156 -277 -18 -363 85 -52 192 -36 258 39 120
137 28 345 -151 344 -32 -1 -67 -8 -89 -20z"/>
<path d="M2493 2023 c-10 -3 -13 -48 -13 -176 l0 -172 -83 -19 c-45 -11 -88
-21 -94 -24 -10 -3 -13 -38 -13 -128 l0 -124 94 0 94 0 4 -312 c5 -293 6 -317
27 -375 40 -111 124 -183 251 -214 69 -17 239 -15 305 3 l50 14 5 127 c3 70 4
132 2 137 -2 6 -43 10 -91 10 -75 0 -93 3 -122 23 -58 39 -59 47 -56 327 l2
255 133 3 132 3 0 148 c0 127 -2 150 -16 155 -9 3 -69 6 -135 6 l-119 0 -2
168 -3 167 -170 2 c-93 1 -176 -1 -182 -4z"/>
<path d="M1801 1676 c-8 -9 -10 -173 -9 -592 l3 -579 168 -5 c93 -3 175 -1
183 3 12 7 14 97 14 591 0 523 -2 584 -16 590 -9 3 -87 6 -174 6 -121 0 -160
-3 -169 -14z"/>
<path d="M4704 1656 c-3 -13 -4 -219 -2 -457 4 -415 5 -437 26 -499 57 -168
173 -235 407 -235 135 1 206 16 317 72 37 18 72 33 78 33 5 0 10 -13 10 -28 0
-15 5 -33 12 -40 14 -14 215 -17 236 -4 10 7 12 132 10 593 l-3 584 -180 0
-180 0 -3 -426 -2 -427 -53 -23 c-62 -27 -182 -38 -227 -19 -65 27 -64 22 -70
480 l-5 415 -182 3 -183 2 -6 -24z"/>
</g>
</svg>
