<?xml version="1.0" standalone="no"?>
<!DOCTYPE svg PUBLIC "-//W3C//DTD SVG 20010904//EN"
 "http://www.w3.org/TR/2001/REC-SVG-20010904/DTD/svg10.dtd">
<svg version="1.0" xmlns="http://www.w3.org/2000/svg"
 width="626.000000pt" height="626.000000pt" viewBox="0 0 626.000000 626.000000"
 preserveAspectRatio="xMidYMid meet">
<metadata>
Created by potrace 1.16, written by Peter Selinger 2001-2019
</metadata>
<g transform="translate(0.000000,626.000000) scale(0.100000,-0.100000)"
fill="#000000" stroke="none">
<path d="M1320 5980 c-442 -34 -847 -349 -983 -765 -66 -199 -61 -39 -65
-2010 -3 -1860 -2 -1924 38 -2079 95 -362 383 -673 733 -790 197 -65 51 -61
2082 -61 2021 0 1900 -4 2090 62 168 58 311 149 442 281 183 184 295 429 323
701 13 135 13 3426 0 3600 -13 160 -47 287 -115 425 -177 362 -515 595 -924
636 -119 12 -3466 12 -3621 0z m707 -1224 c76 -35 153 -113 191 -193 24 -51
27 -70 27 -158 0 -91 -3 -106 -31 -165 -91 -191 -317 -276 -508 -191 -55 24
-137 99 -170 155 -124 212 -25 487 205 570 72 26 209 18 286 -18z m2166 -1059
c237 -77 418 -267 489 -514 l23 -78 0 -775 0 -775 -317 -3 -318 -2 0 587 c0
363 -4 613 -11 653 -38 236 -243 388 -473 351 -166 -27 -301 -135 -363 -291
-16 -41 -18 -103 -23 -670 l-5 -625 -315 0 -315 0 -3 1078 -2 1077 320 0 320
0 0 -146 0 -146 27 34 c80 97 189 178 304 225 114 46 168 53 384 49 181 -3
207 -6 278 -29z m-2003 -1067 l0 -1080 -322 2 -323 3 -3 1065 c-1 586 0 1071
3 1078 3 9 78 12 325 12 l320 0 0 -1080z"/>
</g>
</svg>
