<?xml version="1.0" standalone="no"?>
<!DOCTYPE svg PUBLIC "-//W3C//DTD SVG 20010904//EN"
 "http://www.w3.org/TR/2001/REC-SVG-20010904/DTD/svg10.dtd">
<svg version="1.0" xmlns="http://www.w3.org/2000/svg"
 width="736.000000pt" height="518.000000pt" viewBox="0 0 736.000000 518.000000"
 preserveAspectRatio="xMidYMid meet">
<metadata>
Created by potrace 1.16, written by Peter Selinger 2001-2019
</metadata>
<g transform="translate(0.000000,518.000000) scale(0.100000,-0.100000)"
fill="#000000" stroke="none">
<path d="M2785 5159 c-732 -12 -1504 -45 -1755 -74 -273 -31 -442 -105 -615
-267 -132 -123 -219 -297 -290 -578 -39 -158 -62 -357 -90 -780 -21 -326 -21
-1423 0 -1746 32 -488 59 -682 120 -881 87 -277 179 -423 342 -539 226 -162
493 -213 1283 -243 855 -34 2309 -47 2990 -28 687 19 1293 46 1520 67 274 27
441 88 613 228 157 127 255 302 331 592 43 162 57 272 98 770 18 216 18 1568
0 1810 -19 259 -41 483 -58 590 -28 179 -91 384 -160 523 -106 211 -334 387
-584 451 -315 80 -2170 133 -3745 105z m390 -1589 c88 -46 201 -104 250 -130
50 -26 369 -193 710 -370 737 -384 757 -395 757 -405 0 -7 -491 -265 -1642
-860 -173 -90 -318 -161 -322 -158 -10 5 -11 2037 -2 2046 4 3 25 -4 48 -17
22 -13 113 -61 201 -106z"/>
</g>
</svg>
